<svg xmlns="http://www.w3.org/2000/svg" viewBox="0 0 200 50.4">
  <title>oprimes-logo-white</title>
  <g id="0a6f4d3c-b026-4656-820d-362b3c263f44" data-name="Layer 2">
    <g id="e04eb8fd-d10a-4a34-a9f9-25b3052642c2" data-name="Layer 1">
      <g>
        <g>
          <path d="M165,16.51h14.49a2.44,2.44,0,0,1,2.44,2.44V19a2.44,2.44,0,0,1-2.44,2.44H165a0,0,0,0,1,0,0V16.51A0,0,0,0,1,165,16.51Z" fill="#fff"/>
          <path d="M165,32.49h14.49a2.44,2.44,0,0,1,2.44,2.44V35a2.44,2.44,0,0,1-2.44,2.44H165a0,0,0,0,1,0,0V32.49A0,0,0,0,1,165,32.49Z" fill="#fff"/>
          <path d="M165,24.82h12.41A2.15,2.15,0,0,1,179.56,27v0a2.15,2.15,0,0,1-2.15,2.15H165a0,0,0,0,1,0,0V24.82A0,0,0,0,1,165,24.82Z" fill="#fff"/>
        </g>
        <path d="M67.75,15.9A10.76,10.76,0,0,0,56.71,27c0,6.44,4.43,11,11,11a10.61,10.61,0,0,0,11-11A10.75,10.75,0,0,0,67.75,15.9Zm0,16c-2.57,0-4.29-2-4.29-4.89s1.89-4.93,4.29-4.93S72,24.09,72,27,70.19,31.87,67.72,31.87Z" fill="#fff"/>
        <path d="M92.59,15.9a7.73,7.73,0,0,0-6,3h-.07V16.51H80.25V48h6.33V35.42a7.84,7.84,0,0,0,6,2.6c5.36,0,9.12-5,9.12-11.08S98,15.9,92.59,15.9Zm-1.9,16c-2.36,0-4.25-2-4.25-4.93s1.79-4.89,4.25-4.89,4.29,2,4.29,4.89S93.09,31.87,90.69,31.87Z" fill="#fff"/>
        <path d="M115.27,15.9c-3.61,0-5.61,3.63-5.61,3.63h-.07v-3h-6.33v20.9h6.33v-11c0-.53.46-4.23,3.75-4.23a5,5,0,0,1,3.29,1.13l2.65-6.1A7,7,0,0,0,115.27,15.9Z" fill="#fff"/>
        <path d="M154.81,15.9c-2,0-4.15,1.18-6.08,3.83a6.74,6.74,0,0,0-6.4-3.83,7.26,7.26,0,0,0-5.26,2.81H137v-2.2h-6.33v20.9H137V25.19c0-1.67.83-3.5,2.93-3.5,2.26,0,3.22,1.83,3.22,3.91V37.41h6.33V25c.07-1.59.93-3.26,2.93-3.26,2.26,0,3.22,1.83,3.22,3.91V37.41H162V23.64C162,17.82,158.17,15.9,154.81,15.9Z" fill="#fff"/>
        <path d="M198.57,26.15a7.73,7.73,0,0,0-2.78-1.62l-1.22-.37c-1-.33-1.6-.33-2.23-.61a1.19,1.19,0,0,1-.8-1.16,1.14,1.14,0,0,1,.59-1,2.62,2.62,0,0,1,1.56-.41,8.55,8.55,0,0,1,3.53,1l2.27-4.73a14.29,14.29,0,0,0-6-1.35c-2.77,0-5.3.88-6.73,2.51A7.84,7.84,0,0,0,185,23.46,5.27,5.27,0,0,0,186.19,27a5.83,5.83,0,0,0,3.28,1.81l1.77.46a4,4,0,0,1,1.77.75,1.13,1.13,0,0,1,.34.92,1.25,1.25,0,0,1-.34,1,2.71,2.71,0,0,1-1.73.55,8,8,0,0,1-2.61-.51A9.28,9.28,0,0,1,186,30.46l-2.4,5.15A12.91,12.91,0,0,0,191.16,38c1.56,0,4.76-.18,6.94-2.59a7.29,7.29,0,0,0,1.9-5.15A6.24,6.24,0,0,0,198.57,26.15Z" fill="#fff"/>
        <g>
          <rect x="121.3" y="16.51" width="6.33" height="20.9" fill="#fff"/>
          <circle cx="124.47" cy="10.46" r="3.84" fill="#fff"/>
        </g>
        <g>
          <path d="M18.28,26.56l-17,6.66a25.26,25.26,0,0,1,1-18.65Z" fill="#fff"/>
          <path d="M4.77,40l8,1.23-2,4.73A25.45,25.45,0,0,1,7.38,43,25.87,25.87,0,0,1,4.77,40Z" fill="#fff"/>
          <path d="M18.29,27.82,13,40.59,4.59,39.7a24.72,24.72,0,0,1-2.88-5.38Z" fill="#fff"/>
          <path d="M15.18,41.55,40.26,45.4a25.23,25.23,0,0,1-27.39,1.78Z" fill="#fff"/>
          <polygon points="20.62 28.32 40.82 43.51 15.47 40.84 20.62 28.32" fill="#fff"/>
          <path d="M22,26.38l16.11-6.32L48.54,34.73a25.15,25.15,0,0,1-5.08,7.83Z" fill="#fff"/>
          <polygon points="21.93 25.13 29.15 7.59 37.36 19.08 37.36 19.08 21.93 25.13" fill="#fff"/>
          <polygon points="4.19 13.03 27.04 6.57 19.61 24.62 4.19 13.03" fill="#fff"/>
          <path d="M27.54,5.33h0l-23,5.41A25.69,25.69,0,0,1,7.38,7.37,25,25,0,0,1,23.76,0Z" fill="#fff"/>
          <path d="M29.58.37,28.29,3.51,25.78,0A25.47,25.47,0,0,1,29.58.37Z" fill="#fff"/>
          <path d="M37.25,3.05l-6.9,1.63L31.9.9A24.85,24.85,0,0,1,37.25,3.05Z" fill="#fff"/>
          <path d="M48.18,14.83,39,18.45,29.9,5.76h0L38,3.47h0a24.81,24.81,0,0,1,5,3.9A25.24,25.24,0,0,1,48.18,14.83Z" fill="#fff"/>
          <path d="M49.22,32.82,39.66,19.43l9-3.52A25.25,25.25,0,0,1,49.22,32.82Z" fill="#fff"/>
        </g>
        <g>
          <polygon points="27.54 5.33 27.54 5.34 27.54 5.34 27.54 5.33"/>
          <polygon points="29.9 5.75 29.9 5.76 29.9 5.76 29.9 5.75"/>
        </g>
      </g>
    </g>
  </g>
</svg>
