<svg xmlns="http://www.w3.org/2000/svg" xmlns:xlink="http://www.w3.org/1999/xlink" width="500" zoomAndPan="magnify" viewBox="0 0 375 374.999991" height="500" preserveAspectRatio="xMidYMid meet" version="1.0"><defs><g/></defs><path stroke-linecap="round" transform="matrix(2.259745, -1.9538, 1.962126, 2.269375, 83.816886, 185.748943)" fill="none" stroke-linejoin="miter" d="M 0.499328 0.0000363177 L 10.810226 0.000433487 " stroke="#35d93f" stroke-width="1" stroke-opacity="1" stroke-miterlimit="4"/><path stroke-linecap="round" transform="matrix(2.259745, -1.9538, 1.962126, 2.269375, 115.02467, 158.766376)" fill-opacity="1" fill="#35d93f" fill-rule="nonzero" stroke-linejoin="round" d="M -2.499469 -1.49986 L -0.499829 -0.000332435 L -2.499485 1.500333 Z M -2.499469 -1.49986 " stroke="#35d93f" stroke-width="1" stroke-opacity="1" stroke-miterlimit="4"/><path stroke-linecap="butt" transform="matrix(-0.000000000000000482, -2.998232, 3, -0.000000000000000482, 39.960039, 195.05439)" fill="none" stroke-linejoin="miter" d="M -0.0000990946 0.000299635 L 39.774642 0.000299635 " stroke="#ffffff" stroke-width="1" stroke-opacity="1" stroke-miterlimit="4"/><path stroke-linecap="round" transform="matrix(2.10636, 2.10636, -2.12132, 2.12132, 74.260548, 174.07099)" fill="none" stroke-linejoin="miter" d="M 0.499906 0.000484947 L 5.042509 -0.000435765 " stroke="#35d93f" stroke-width="1" stroke-opacity="1" stroke-miterlimit="4"/><path stroke-linecap="butt" transform="matrix(-2.997039, -0.000000000000000367, 0.000000000000000367, -3, 169.090349, 77.232667)" fill="none" stroke-linejoin="miter" d="M 0.000168715 -0.000569357 L 43.545746 -0.000569357 " stroke="#ffffff" stroke-width="1" stroke-opacity="1" stroke-miterlimit="4"/><path stroke-linecap="round" transform="matrix(-2.997039, -0.000000000000000367, 0.000000000000000367, -3, 169.090349, 204.871011)" fill="none" stroke-linejoin="miter" d="M 0.499359 -0.0000274677 L 43.046555 -0.0000274677 " stroke="#ffffff" stroke-width="1" stroke-opacity="1" stroke-miterlimit="4"/><path stroke-linecap="butt" transform="matrix(0.000000000000000185, -3.026269, 3, 0.000000000000000184, 169.095461, 206.366677)" fill="none" stroke-linejoin="miter" d="M -0.00016874 -0.000570465 L 11.154758 -0.000570465 " stroke="#ffffff" stroke-width="1" stroke-opacity="1" stroke-miterlimit="4"/><path stroke-linecap="butt" transform="matrix(0.000000000000000183, -2.990654, 3, 0.000000000000000184, 169.098303, 109.58965)" fill="none" stroke-linejoin="miter" d="M -0.0000649177 -0.000215582 L 11.286398 -0.000215582 " stroke="#ffffff" stroke-width="1" stroke-opacity="1" stroke-miterlimit="4"/><g fill="#ffffff" fill-opacity="1"><g transform="translate(131.344376, 138.254977)"><g><path d="M 2.5625 0 L 2.5625 -19.703125 L 10.46875 -19.703125 C 12.507812 -19.703125 14.050781 -19.234375 15.09375 -18.296875 C 16.132812 -17.359375 16.65625 -16.0625 16.65625 -14.40625 C 16.65625 -13.21875 16.347656 -12.238281 15.734375 -11.46875 C 15.128906 -10.707031 14.222656 -10.125 13.015625 -9.71875 L 13.015625 -9.4375 C 13.640625 -9.164062 14.140625 -8.765625 14.515625 -8.234375 C 14.898438 -7.703125 15.265625 -6.914062 15.609375 -5.875 L 17.578125 0 L 13.578125 0 L 11.640625 -5.890625 C 11.441406 -6.484375 11.21875 -6.941406 10.96875 -7.265625 C 10.726562 -7.597656 10.414062 -7.835938 10.03125 -7.984375 C 9.65625 -8.128906 9.160156 -8.203125 8.546875 -8.203125 L 6.453125 -8.203125 L 6.453125 0 Z M 10 -11.296875 C 11.882812 -11.296875 12.828125 -12.175781 12.828125 -13.9375 C 12.828125 -15.726562 11.882812 -16.625 10 -16.625 L 6.453125 -16.625 L 6.453125 -11.296875 Z M 10 -11.296875 "/></g></g></g><g fill="#ffffff" fill-opacity="1"><g transform="translate(150.159722, 138.254977)"><g><path d="M 10.453125 0.28125 C 7.734375 0.28125 5.71875 -0.363281 4.40625 -1.65625 C 3.09375 -2.945312 2.4375 -4.859375 2.4375 -7.390625 L 2.4375 -19.703125 L 6.25 -19.703125 L 6.25 -7.421875 C 6.25 -5.972656 6.59375 -4.890625 7.28125 -4.171875 C 7.976562 -3.453125 9.035156 -3.09375 10.453125 -3.09375 C 13.242188 -3.09375 14.640625 -4.535156 14.640625 -7.421875 L 14.640625 -19.703125 L 18.453125 -19.703125 L 18.453125 -7.390625 C 18.453125 -4.859375 17.796875 -2.945312 16.484375 -1.65625 C 15.171875 -0.363281 13.160156 0.28125 10.453125 0.28125 Z M 10.453125 0.28125 "/></g></g></g><g fill="#ffffff" fill-opacity="1"><g transform="translate(171.442117, 138.254977)"><g><path d="M 9.65625 -19.703125 C 12.851562 -19.703125 15.289062 -18.875 16.96875 -17.21875 C 18.65625 -15.570312 19.5 -13.117188 19.5 -9.859375 C 19.5 -6.597656 18.65625 -4.140625 16.96875 -2.484375 C 15.289062 -0.828125 12.851562 0 9.65625 0 L 2.5625 0 L 2.5625 -19.703125 Z M 9.421875 -3.28125 C 11.453125 -3.28125 12.96875 -3.796875 13.96875 -4.828125 C 14.976562 -5.867188 15.484375 -7.546875 15.484375 -9.859375 C 15.484375 -12.160156 14.976562 -13.832031 13.96875 -14.875 C 12.96875 -15.914062 11.453125 -16.4375 9.421875 -16.4375 L 6.453125 -16.4375 L 6.453125 -3.28125 Z M 9.421875 -3.28125 "/></g></g></g><g fill="#ffffff" fill-opacity="1"><g transform="translate(192.886286, 138.254977)"><g><path d="M 2.5625 0 L 2.5625 -19.703125 L 10.46875 -19.703125 C 12.507812 -19.703125 14.050781 -19.234375 15.09375 -18.296875 C 16.132812 -17.359375 16.65625 -16.0625 16.65625 -14.40625 C 16.65625 -13.21875 16.347656 -12.238281 15.734375 -11.46875 C 15.128906 -10.707031 14.222656 -10.125 13.015625 -9.71875 L 13.015625 -9.4375 C 13.640625 -9.164062 14.140625 -8.765625 14.515625 -8.234375 C 14.898438 -7.703125 15.265625 -6.914062 15.609375 -5.875 L 17.578125 0 L 13.578125 0 L 11.640625 -5.890625 C 11.441406 -6.484375 11.21875 -6.941406 10.96875 -7.265625 C 10.726562 -7.597656 10.414062 -7.835938 10.03125 -7.984375 C 9.65625 -8.128906 9.160156 -8.203125 8.546875 -8.203125 L 6.453125 -8.203125 L 6.453125 0 Z M 10 -11.296875 C 11.882812 -11.296875 12.828125 -12.175781 12.828125 -13.9375 C 12.828125 -15.726562 11.882812 -16.625 10 -16.625 L 6.453125 -16.625 L 6.453125 -11.296875 Z M 10 -11.296875 "/></g></g></g><g fill="#ffffff" fill-opacity="1"><g transform="translate(211.701631, 138.254977)"><g><path d="M 18.90625 0 L 14.8125 0 L 13.328125 -4.546875 L 5.78125 -4.546875 L 4.296875 0 L 0.296875 0 L 7.109375 -19.703125 L 12.109375 -19.703125 Z M 9.375 -15.59375 L 6.828125 -7.8125 L 12.25 -7.8125 L 9.703125 -15.59375 Z M 9.375 -15.59375 "/></g></g></g><g fill="#ffffff" fill-opacity="1"><g transform="translate(131.344376, 165.254975)"><g><path d="M 10.765625 0.28125 C 8.953125 0.28125 7.351562 -0.09375 5.96875 -0.84375 C 4.582031 -1.601562 3.5 -2.738281 2.71875 -4.25 C 1.9375 -5.769531 1.546875 -7.640625 1.546875 -9.859375 C 1.546875 -12.078125 1.9375 -13.941406 2.71875 -15.453125 C 3.5 -16.972656 4.582031 -18.109375 5.96875 -18.859375 C 7.351562 -19.617188 8.953125 -20 10.765625 -20 C 12.660156 -20 14.269531 -19.625 15.59375 -18.875 C 16.925781 -18.132812 17.875 -17.003906 18.4375 -15.484375 L 15.59375 -13.75 L 15.265625 -13.765625 C 14.835938 -14.785156 14.257812 -15.519531 13.53125 -15.96875 C 12.8125 -16.414062 11.890625 -16.640625 10.765625 -16.640625 C 9.128906 -16.640625 7.851562 -16.097656 6.9375 -15.015625 C 6.019531 -13.929688 5.5625 -12.210938 5.5625 -9.859375 C 5.5625 -7.515625 6.019531 -5.800781 6.9375 -4.71875 C 7.851562 -3.632812 9.128906 -3.09375 10.765625 -3.09375 C 13.328125 -3.09375 14.894531 -4.335938 15.46875 -6.828125 L 15.8125 -6.828125 L 18.6875 -5.328125 C 18.144531 -3.453125 17.222656 -2.046875 15.921875 -1.109375 C 14.617188 -0.179688 12.898438 0.28125 10.765625 0.28125 Z M 10.765625 0.28125 "/></g></g></g><g fill="#ffffff" fill-opacity="1"><g transform="translate(151.062958, 165.254975)"><g><path d="M 10.75 0.28125 C 8.9375 0.28125 7.335938 -0.0820312 5.953125 -0.8125 C 4.578125 -1.550781 3.5 -2.675781 2.71875 -4.1875 C 1.9375 -5.707031 1.546875 -7.597656 1.546875 -9.859375 C 1.546875 -12.109375 1.9375 -13.988281 2.71875 -15.5 C 3.5 -17.019531 4.578125 -18.148438 5.953125 -18.890625 C 7.335938 -19.628906 8.9375 -20 10.75 -20 C 12.550781 -20 14.140625 -19.628906 15.515625 -18.890625 C 16.890625 -18.160156 17.960938 -17.035156 18.734375 -15.515625 C 19.515625 -13.992188 19.90625 -12.109375 19.90625 -9.859375 C 19.90625 -7.597656 19.515625 -5.707031 18.734375 -4.1875 C 17.960938 -2.675781 16.890625 -1.550781 15.515625 -0.8125 C 14.140625 -0.0820312 12.550781 0.28125 10.75 0.28125 Z M 10.75 -3.09375 C 12.414062 -3.09375 13.6875 -3.628906 14.5625 -4.703125 C 15.445312 -5.785156 15.890625 -7.503906 15.890625 -9.859375 C 15.890625 -12.210938 15.445312 -13.925781 14.5625 -15 C 13.6875 -16.082031 12.414062 -16.625 10.75 -16.625 C 9.0625 -16.625 7.773438 -16.082031 6.890625 -15 C 6.003906 -13.925781 5.5625 -12.210938 5.5625 -9.859375 C 5.5625 -7.503906 6.003906 -5.785156 6.890625 -4.703125 C 7.773438 -3.628906 9.0625 -3.09375 10.75 -3.09375 Z M 10.75 -3.09375 "/></g></g></g><g fill="#ffffff" fill-opacity="1"><g transform="translate(172.925041, 165.254975)"><g><path d="M 6.34375 0 L 2.5625 0 L 2.5625 -19.703125 L 7.03125 -19.703125 L 14.9375 -7.015625 L 15.28125 -7.0625 L 15.28125 -19.703125 L 19.03125 -19.703125 L 19.03125 0 L 15.046875 0 L 6.671875 -13.5625 L 6.34375 -13.515625 Z M 6.34375 0 "/></g></g></g><g fill="#ffffff" fill-opacity="1"><g transform="translate(194.935419, 165.254975)"><g><path d="M 8.734375 0.28125 C 7.367188 0.28125 6.148438 0.113281 5.078125 -0.21875 C 4.015625 -0.5625 3.128906 -1.003906 2.421875 -1.546875 C 1.710938 -2.097656 1.171875 -2.703125 0.796875 -3.359375 L 2.9375 -5.96875 L 3.28125 -5.96875 C 3.875 -5.09375 4.625 -4.394531 5.53125 -3.875 C 6.445312 -3.351562 7.515625 -3.09375 8.734375 -3.09375 C 9.773438 -3.09375 10.5625 -3.3125 11.09375 -3.75 C 11.625 -4.1875 11.890625 -4.789062 11.890625 -5.5625 C 11.890625 -6.03125 11.800781 -6.421875 11.625 -6.734375 C 11.457031 -7.054688 11.175781 -7.328125 10.78125 -7.546875 C 10.382812 -7.773438 9.851562 -7.96875 9.1875 -8.125 L 6.640625 -8.703125 C 4.867188 -9.109375 3.550781 -9.78125 2.6875 -10.71875 C 1.820312 -11.664062 1.390625 -12.890625 1.390625 -14.390625 C 1.390625 -15.503906 1.664062 -16.484375 2.21875 -17.328125 C 2.78125 -18.171875 3.59375 -18.828125 4.65625 -19.296875 C 5.71875 -19.765625 6.992188 -20 8.484375 -20 C 10.003906 -20 11.300781 -19.796875 12.375 -19.390625 C 13.457031 -18.992188 14.375 -18.378906 15.125 -17.546875 L 13.203125 -14.90625 L 12.859375 -14.90625 C 12.304688 -15.488281 11.671875 -15.925781 10.953125 -16.21875 C 10.234375 -16.507812 9.410156 -16.65625 8.484375 -16.65625 C 7.410156 -16.65625 6.59375 -16.46875 6.03125 -16.09375 C 5.476562 -15.71875 5.203125 -15.195312 5.203125 -14.53125 C 5.203125 -13.914062 5.394531 -13.421875 5.78125 -13.046875 C 6.175781 -12.679688 6.851562 -12.394531 7.8125 -12.1875 L 10.40625 -11.640625 C 12.320312 -11.242188 13.710938 -10.5625 14.578125 -9.59375 C 15.441406 -8.625 15.875 -7.363281 15.875 -5.8125 C 15.875 -4.582031 15.609375 -3.507812 15.078125 -2.59375 C 14.546875 -1.6875 13.742188 -0.976562 12.671875 -0.46875 C 11.597656 0.03125 10.285156 0.28125 8.734375 0.28125 Z M 8.734375 0.28125 "/></g></g></g><g fill="#ffffff" fill-opacity="1"><g transform="translate(212.254357, 165.254975)"><g><path d="M 10.453125 0.28125 C 7.734375 0.28125 5.71875 -0.363281 4.40625 -1.65625 C 3.09375 -2.945312 2.4375 -4.859375 2.4375 -7.390625 L 2.4375 -19.703125 L 6.25 -19.703125 L 6.25 -7.421875 C 6.25 -5.972656 6.59375 -4.890625 7.28125 -4.171875 C 7.976562 -3.453125 9.035156 -3.09375 10.453125 -3.09375 C 13.242188 -3.09375 14.640625 -4.535156 14.640625 -7.421875 L 14.640625 -19.703125 L 18.453125 -19.703125 L 18.453125 -7.390625 C 18.453125 -4.859375 17.796875 -2.945312 16.484375 -1.65625 C 15.171875 -0.363281 13.160156 0.28125 10.453125 0.28125 Z M 10.453125 0.28125 "/></g></g></g><g fill="#ffffff" fill-opacity="1"><g transform="translate(233.536756, 165.254975)"><g><path d="M 6.453125 -19.703125 L 6.453125 -3.265625 L 15.3125 -3.265625 L 15.3125 0 L 2.5625 0 L 2.5625 -19.703125 Z M 6.453125 -19.703125 "/></g></g></g><g fill="#ffffff" fill-opacity="1"><g transform="translate(249.885052, 165.254975)"><g><path d="M 15.796875 -19.703125 L 15.796875 -16.4375 L 10.109375 -16.4375 L 10.109375 0 L 6.234375 0 L 6.234375 -16.4375 L 0.546875 -16.4375 L 0.546875 -19.703125 Z M 15.796875 -19.703125 "/></g></g></g><g fill="#ffffff" fill-opacity="1"><g transform="translate(266.610819, 165.254975)"><g><path d="M 18.90625 0 L 14.8125 0 L 13.328125 -4.546875 L 5.78125 -4.546875 L 4.296875 0 L 0.296875 0 L 7.109375 -19.703125 L 12.109375 -19.703125 Z M 9.375 -15.59375 L 6.828125 -7.8125 L 12.25 -7.8125 L 9.703125 -15.59375 Z M 9.375 -15.59375 "/></g></g></g><g fill="#ffffff" fill-opacity="1"><g transform="translate(286.20807, 165.254975)"><g><path d="M 6.34375 0 L 2.5625 0 L 2.5625 -19.703125 L 7.03125 -19.703125 L 14.9375 -7.015625 L 15.28125 -7.0625 L 15.28125 -19.703125 L 19.03125 -19.703125 L 19.03125 0 L 15.046875 0 L 6.671875 -13.5625 L 6.34375 -13.515625 Z M 6.34375 0 "/></g></g></g><g fill="#ffffff" fill-opacity="1"><g transform="translate(308.218445, 165.254975)"><g><path d="M 10.765625 0.28125 C 8.953125 0.28125 7.351562 -0.09375 5.96875 -0.84375 C 4.582031 -1.601562 3.5 -2.738281 2.71875 -4.25 C 1.9375 -5.769531 1.546875 -7.640625 1.546875 -9.859375 C 1.546875 -12.078125 1.9375 -13.941406 2.71875 -15.453125 C 3.5 -16.972656 4.582031 -18.109375 5.96875 -18.859375 C 7.351562 -19.617188 8.953125 -20 10.765625 -20 C 12.660156 -20 14.269531 -19.625 15.59375 -18.875 C 16.925781 -18.132812 17.875 -17.003906 18.4375 -15.484375 L 15.59375 -13.75 L 15.265625 -13.765625 C 14.835938 -14.785156 14.257812 -15.519531 13.53125 -15.96875 C 12.8125 -16.414062 11.890625 -16.640625 10.765625 -16.640625 C 9.128906 -16.640625 7.851562 -16.097656 6.9375 -15.015625 C 6.019531 -13.929688 5.5625 -12.210938 5.5625 -9.859375 C 5.5625 -7.515625 6.019531 -5.800781 6.9375 -4.71875 C 7.851562 -3.632812 9.128906 -3.09375 10.765625 -3.09375 C 13.328125 -3.09375 14.894531 -4.335938 15.46875 -6.828125 L 15.8125 -6.828125 L 18.6875 -5.328125 C 18.144531 -3.453125 17.222656 -2.046875 15.921875 -1.109375 C 14.617188 -0.179688 12.898438 0.28125 10.765625 0.28125 Z M 10.765625 0.28125 "/></g></g></g><g fill="#ffffff" fill-opacity="1"><g transform="translate(327.937037, 165.254975)"><g><path d="M 10.796875 0 L 6.90625 0 L 6.90625 -7.734375 L 0.09375 -19.703125 L 4.28125 -19.703125 L 8.78125 -11.953125 L 9.109375 -11.953125 L 13.515625 -19.703125 L 17.609375 -19.703125 L 10.796875 -7.734375 Z M 10.796875 0 "/></g></g></g><path stroke-linecap="round" transform="matrix(2.319172, -1.936661, 1.922906, 2.302701, 38.460841, 205.55565)" fill="none" stroke-linejoin="miter" d="M 0.500463 -0.000210984 L 15.884723 0.000278196 " stroke="#35d93f" stroke-width="1" stroke-opacity="1" stroke-miterlimit="4"/></svg>